<svg xmlns="http://www.w3.org/2000/svg" xmlns:xlink="http://www.w3.org/1999/xlink" width="48" zoomAndPan="magnify" viewBox="0 0 36 36.000001" height="48" preserveAspectRatio="xMidYMid meet" version="1.0"><defs><clipPath id="50f4cbf841"><path d="M 0.488281 0 L 35.511719 0 L 35.511719 35.027344 L 0.488281 35.027344 Z M 0.488281 0 " clip-rule="nonzero"/></clipPath><clipPath id="fadcfdc5d3"><path d="M 1.453125 1.597656 L 32.832031 1.597656 L 32.832031 31.515625 L 1.453125 31.515625 Z M 1.453125 1.597656 " clip-rule="nonzero"/></clipPath><clipPath id="c6535467d6"><path d="M 3.023438 1.597656 L 34.402344 1.597656 L 34.402344 31.515625 L 3.023438 31.515625 Z M 3.023438 1.597656 " clip-rule="nonzero"/></clipPath><clipPath id="42668a9ced"><path d="M 7.015625 14.441406 L 29.636719 14.441406 L 29.636719 33.414062 L 7.015625 33.414062 Z M 7.015625 14.441406 " clip-rule="nonzero"/></clipPath><clipPath id="fa1db100ac"><path d="M 17.507812 12.875 L 26.265625 12.875 L 26.265625 31.515625 L 17.507812 31.515625 Z M 17.507812 12.875 " clip-rule="nonzero"/></clipPath><clipPath id="47b594c60e"><path d="M 22.132812 1.597656 L 30.890625 1.597656 L 30.890625 19.839844 L 22.132812 19.839844 Z M 22.132812 1.597656 " clip-rule="nonzero"/></clipPath><clipPath id="0f8f6f0c4b"><path d="M 20 7 L 25 7 L 25 14 L 20 14 Z M 20 7 " clip-rule="nonzero"/></clipPath><clipPath id="67db73c49f"><path d="M 20.066406 7.738281 L 23.6875 7.285156 L 24.414062 13.078125 L 20.792969 13.53125 Z M 20.066406 7.738281 " clip-rule="nonzero"/></clipPath><clipPath id="24632e0da4"><path d="M 23.382812 7.324219 L 19.761719 7.777344 L 20.484375 13.570312 L 24.105469 13.117188 Z M 23.382812 7.324219 " clip-rule="nonzero"/></clipPath><clipPath id="d4fbf7c767"><path d="M 24.386719 1.597656 L 33.140625 1.597656 L 33.140625 19.839844 L 24.386719 19.839844 Z M 24.386719 1.597656 " clip-rule="nonzero"/></clipPath><clipPath id="085a61e6be"><path d="M 19.789062 12.875 L 27.816406 12.875 L 27.816406 30.390625 L 19.789062 30.390625 Z M 19.789062 12.875 " clip-rule="nonzero"/></clipPath><clipPath id="b25c548654"><path d="M 19.230469 17.796875 L 27.988281 17.796875 L 27.988281 31.515625 L 19.230469 31.515625 Z M 19.230469 17.796875 " clip-rule="nonzero"/></clipPath></defs><g clip-path="url(#50f4cbf841)"><path fill="#ffffff" d="M 0.488281 0 L 35.511719 0 L 35.511719 35.027344 L 0.488281 35.027344 Z M 0.488281 0 " fill-opacity="1" fill-rule="nonzero"/><path fill="#000000" d="M 0.488281 0 L 35.511719 0 L 35.511719 35.027344 L 0.488281 35.027344 Z M 0.488281 0 " fill-opacity="1" fill-rule="nonzero"/></g><g clip-path="url(#fadcfdc5d3)"><path fill="#8ea5e8" d="M 32.277344 1.597656 L 26.113281 1.597656 C 25.839844 1.597656 25.566406 1.734375 25.5 2.007812 L 17.210938 22.078125 L 8.921875 2.007812 C 8.855469 1.734375 8.582031 1.597656 8.308594 1.597656 L 2.144531 1.597656 C 1.730469 1.597656 1.457031 1.871094 1.457031 2.28125 L 1.457031 31.046875 C 1.457031 31.460938 1.730469 31.734375 2.144531 31.734375 L 6.9375 31.734375 C 7.347656 31.734375 7.621094 31.460938 7.621094 31.046875 L 7.621094 12.554688 L 8.101562 12.554688 L 15.019531 29.269531 C 15.15625 29.542969 15.363281 29.679688 15.636719 29.679688 L 18.855469 29.679688 C 19.128906 29.679688 19.402344 29.542969 19.472656 29.269531 L 26.320312 12.554688 L 26.800781 12.554688 L 26.800781 31.046875 C 26.800781 31.460938 27.074219 31.734375 27.484375 31.734375 L 32.277344 31.734375 C 32.691406 31.734375 32.964844 31.460938 32.964844 31.046875 L 32.964844 2.28125 C 32.964844 1.871094 32.691406 1.597656 32.277344 1.597656 Z M 32.277344 1.597656 " fill-opacity="1" fill-rule="nonzero"/></g><g clip-path="url(#c6535467d6)"><path fill="#8ea5e8" d="M 33.847656 1.597656 L 27.683594 1.597656 C 27.410156 1.597656 27.136719 1.734375 27.066406 2.007812 L 18.78125 22.078125 L 10.492188 2.007812 C 10.425781 1.734375 10.148438 1.597656 9.875 1.597656 L 3.710938 1.597656 C 3.300781 1.597656 3.027344 1.871094 3.027344 2.28125 L 3.027344 31.046875 C 3.027344 31.460938 3.300781 31.734375 3.710938 31.734375 L 8.507812 31.734375 C 8.917969 31.734375 9.191406 31.460938 9.191406 31.046875 L 9.191406 12.554688 L 9.671875 12.554688 L 16.589844 29.269531 C 16.726562 29.542969 16.929688 29.679688 17.203125 29.679688 L 20.421875 29.679688 C 20.699219 29.679688 20.972656 29.542969 21.039062 29.269531 L 27.890625 12.554688 L 28.367188 12.554688 L 28.367188 31.046875 C 28.367188 31.460938 28.640625 31.734375 29.054688 31.734375 L 33.847656 31.734375 C 34.257812 31.734375 34.53125 31.460938 34.53125 31.046875 L 34.53125 2.28125 C 34.53125 1.871094 34.257812 1.597656 33.847656 1.597656 Z M 33.847656 1.597656 " fill-opacity="1" fill-rule="nonzero"/></g><g clip-path="url(#42668a9ced)"><path fill="#4aeb8a" d="M 38.320312 -7.175781 L 29.964844 -7.175781 C 29.59375 -7.175781 29.222656 -6.988281 29.128906 -6.617188 L 17.894531 20.589844 L 6.660156 -6.617188 C 6.566406 -6.988281 6.195312 -7.175781 5.824219 -7.175781 L -2.53125 -7.175781 C -3.089844 -7.175781 -3.460938 -6.800781 -3.460938 -6.246094 L -3.460938 32.75 C -3.460938 33.308594 -3.089844 33.679688 -2.53125 33.679688 L 3.96875 33.679688 C 4.523438 33.679688 4.894531 33.308594 4.894531 32.75 L 4.894531 7.683594 L 5.546875 7.683594 L 14.921875 30.335938 C 15.109375 30.707031 15.386719 30.894531 15.757812 30.894531 L 20.125 30.894531 C 20.496094 30.894531 20.867188 30.707031 20.957031 30.335938 L 30.242188 7.683594 L 30.894531 7.683594 L 30.894531 32.75 C 30.894531 33.308594 31.265625 33.679688 31.820312 33.679688 L 38.320312 33.679688 C 38.878906 33.679688 39.25 33.308594 39.25 32.75 L 39.25 -6.246094 C 39.25 -6.800781 38.878906 -7.175781 38.320312 -7.175781 Z M 38.320312 -7.175781 " fill-opacity="1" fill-rule="nonzero"/></g><g clip-path="url(#fa1db100ac)"><path fill="#4aeb8a" d="M 32.277344 1.597656 L 26.113281 1.597656 C 25.839844 1.597656 25.566406 1.734375 25.5 2.007812 L 17.210938 22.078125 L 8.921875 2.007812 C 8.855469 1.734375 8.582031 1.597656 8.308594 1.597656 L 2.144531 1.597656 C 1.730469 1.597656 1.457031 1.871094 1.457031 2.28125 L 1.457031 31.046875 C 1.457031 31.460938 1.730469 31.734375 2.144531 31.734375 L 6.9375 31.734375 C 7.347656 31.734375 7.621094 31.460938 7.621094 31.046875 L 7.621094 12.554688 L 8.101562 12.554688 L 15.019531 29.269531 C 15.15625 29.542969 15.363281 29.679688 15.636719 29.679688 L 18.855469 29.679688 C 19.128906 29.679688 19.402344 29.542969 19.472656 29.269531 L 26.320312 12.554688 L 26.800781 12.554688 L 26.800781 31.046875 C 26.800781 31.460938 27.074219 31.734375 27.484375 31.734375 L 32.277344 31.734375 C 32.691406 31.734375 32.964844 31.460938 32.964844 31.046875 L 32.964844 2.28125 C 32.964844 1.871094 32.691406 1.597656 32.277344 1.597656 Z M 32.277344 1.597656 " fill-opacity="1" fill-rule="nonzero"/></g><g clip-path="url(#47b594c60e)"><path fill="#4aeb8a" d="M 36.632812 -9.46875 L 30.582031 -9.46875 C 30.3125 -9.46875 30.042969 -9.332031 29.976562 -9.066406 L 21.84375 10.628906 L 13.710938 -9.066406 C 13.644531 -9.332031 13.375 -9.46875 13.105469 -9.46875 L 7.054688 -9.46875 C 6.652344 -9.46875 6.382812 -9.199219 6.382812 -8.796875 L 6.382812 19.4375 C 6.382812 19.839844 6.652344 20.109375 7.054688 20.109375 L 11.761719 20.109375 C 12.164062 20.109375 12.433594 19.839844 12.433594 19.4375 L 12.433594 1.285156 L 12.902344 1.285156 L 19.691406 17.6875 C 19.828125 17.957031 20.027344 18.09375 20.296875 18.09375 L 23.457031 18.09375 C 23.726562 18.09375 23.996094 17.957031 24.0625 17.6875 L 30.785156 1.285156 L 31.253906 1.285156 L 31.253906 19.4375 C 31.253906 19.839844 31.523438 20.109375 31.925781 20.109375 L 36.632812 20.109375 C 37.035156 20.109375 37.304688 19.839844 37.304688 19.4375 L 37.304688 -8.796875 C 37.304688 -9.199219 37.035156 -9.46875 36.632812 -9.46875 Z M 36.632812 -9.46875 " fill-opacity="1" fill-rule="nonzero"/></g><g clip-path="url(#0f8f6f0c4b)"><g clip-path="url(#67db73c49f)"><g clip-path="url(#24632e0da4)"><path fill="#4aeb8a" d="M 23.382812 7.332031 L 23.730469 10.097656 L 24.074219 12.863281 C 22.96875 13 21.863281 13.136719 20.757812 13.273438 C 21.632812 11.292969 22.507812 9.3125 23.382812 7.332031 " fill-opacity="1" fill-rule="nonzero"/></g></g></g><g clip-path="url(#d4fbf7c767)"><path fill="#4aeb8a" d="M 38.882812 -9.46875 L 32.832031 -9.46875 C 32.5625 -9.46875 32.296875 -9.332031 32.226562 -9.066406 L 24.09375 10.628906 L 15.960938 -9.066406 C 15.894531 -9.332031 15.625 -9.46875 15.355469 -9.46875 L 9.304688 -9.46875 C 8.902344 -9.46875 8.632812 -9.199219 8.632812 -8.796875 L 8.632812 19.4375 C 8.632812 19.839844 8.902344 20.109375 9.304688 20.109375 L 14.011719 20.109375 C 14.414062 20.109375 14.683594 19.839844 14.683594 19.4375 L 14.683594 1.285156 L 15.152344 1.285156 L 21.945312 17.6875 C 22.078125 17.957031 22.28125 18.09375 22.546875 18.09375 L 25.707031 18.09375 C 25.976562 18.09375 26.246094 17.957031 26.3125 17.6875 L 33.035156 1.285156 L 33.503906 1.285156 L 33.503906 19.4375 C 33.503906 19.839844 33.773438 20.109375 34.175781 20.109375 L 38.882812 20.109375 C 39.285156 20.109375 39.554688 19.839844 39.554688 19.4375 L 39.554688 -8.796875 C 39.554688 -9.199219 39.285156 -9.46875 38.882812 -9.46875 Z M 38.882812 -9.46875 " fill-opacity="1" fill-rule="nonzero"/></g><g clip-path="url(#085a61e6be)"><path fill="#4aeb8a" d="M 33.871094 2.125 L 27.996094 2.125 C 27.734375 2.125 27.472656 2.257812 27.40625 2.519531 L 19.507812 21.644531 L 11.609375 2.519531 C 11.546875 2.257812 11.285156 2.125 11.023438 2.125 L 5.148438 2.125 C 4.757812 2.125 4.496094 2.386719 4.496094 2.777344 L 4.496094 30.195312 C 4.496094 30.585938 4.757812 30.847656 5.148438 30.847656 L 9.71875 30.847656 C 10.109375 30.847656 10.371094 30.585938 10.371094 30.195312 L 10.371094 12.570312 L 10.828125 12.570312 L 17.421875 28.5 C 17.550781 28.757812 17.746094 28.890625 18.007812 28.890625 L 21.074219 28.890625 C 21.335938 28.890625 21.597656 28.757812 21.664062 28.5 L 28.191406 12.570312 L 28.648438 12.570312 L 28.648438 30.195312 C 28.648438 30.585938 28.910156 30.847656 29.300781 30.847656 L 33.871094 30.847656 C 34.261719 30.847656 34.523438 30.585938 34.523438 30.195312 L 34.523438 2.777344 C 34.523438 2.386719 34.261719 2.125 33.871094 2.125 Z M 33.871094 2.125 " fill-opacity="1" fill-rule="nonzero"/></g><g clip-path="url(#b25c548654)"><path fill="#4aeb8a" d="M 34.296875 1.597656 L 28.132812 1.597656 C 27.859375 1.597656 27.582031 1.734375 27.515625 2.007812 L 19.226562 22.078125 L 10.941406 2.007812 C 10.871094 1.734375 10.597656 1.597656 10.324219 1.597656 L 4.160156 1.597656 C 3.75 1.597656 3.476562 1.871094 3.476562 2.28125 L 3.476562 31.046875 C 3.476562 31.460938 3.75 31.734375 4.160156 31.734375 L 8.953125 31.734375 C 9.363281 31.734375 9.640625 31.460938 9.640625 31.046875 L 9.640625 12.554688 L 10.117188 12.554688 L 17.035156 29.269531 C 17.171875 29.542969 17.378906 29.679688 17.652344 29.679688 L 20.871094 29.679688 C 21.144531 29.679688 21.417969 29.542969 21.488281 29.269531 L 28.335938 12.554688 L 28.816406 12.554688 L 28.816406 31.046875 C 28.816406 31.460938 29.089844 31.734375 29.5 31.734375 L 34.296875 31.734375 C 34.707031 31.734375 34.980469 31.460938 34.980469 31.046875 L 34.980469 2.28125 C 34.980469 1.871094 34.707031 1.597656 34.296875 1.597656 Z M 34.296875 1.597656 " fill-opacity="1" fill-rule="nonzero"/></g></svg>