<svg xmlns="http://www.w3.org/2000/svg" xmlns:xlink="http://www.w3.org/1999/xlink" width="48" zoomAndPan="magnify" viewBox="0 0 36 36.000001" height="48" preserveAspectRatio="xMidYMid meet" version="1.0"><defs><clipPath id="f9735dee5e"><path d="M 2.238281 2.441406 L 33.617188 2.441406 L 33.617188 32.359375 L 2.238281 32.359375 Z M 2.238281 2.441406 " clip-rule="nonzero"/></clipPath><clipPath id="77fcef13d8"><path d="M 9.972656 18.390625 L 26.757812 18.390625 L 26.757812 32.253906 L 9.972656 32.253906 Z M 9.972656 18.390625 " clip-rule="nonzero"/></clipPath><clipPath id="98f560d481"><path d="M 18.292969 13.71875 L 27.046875 13.71875 L 27.046875 32.359375 L 18.292969 32.359375 Z M 18.292969 13.71875 " clip-rule="nonzero"/></clipPath><clipPath id="6b5bae1ff9"><path d="M 22.917969 2.441406 L 31.675781 2.441406 L 31.675781 20.683594 L 22.917969 20.683594 Z M 22.917969 2.441406 " clip-rule="nonzero"/></clipPath><clipPath id="b648163274"><path d="M 21 8 L 25 8 L 25 15 L 21 15 Z M 21 8 " clip-rule="nonzero"/></clipPath><clipPath id="6b2c87bd7a"><path d="M 20.851562 8.582031 L 24.472656 8.128906 L 25.195312 13.921875 L 21.578125 14.375 Z M 20.851562 8.582031 " clip-rule="nonzero"/></clipPath><clipPath id="3614258763"><path d="M 24.167969 8.167969 L 20.546875 8.621094 L 21.269531 14.414062 L 24.890625 13.960938 Z M 24.167969 8.167969 " clip-rule="nonzero"/></clipPath></defs><g clip-path="url(#f9735dee5e)"><path fill="#8ea5e8" d="M 33.0625 2.441406 L 26.898438 2.441406 C 26.625 2.441406 26.351562 2.578125 26.28125 2.851562 L 17.996094 22.917969 L 9.707031 2.851562 C 9.640625 2.578125 9.367188 2.441406 9.089844 2.441406 L 2.925781 2.441406 C 2.515625 2.441406 2.242188 2.714844 2.242188 3.125 L 2.242188 31.890625 C 2.242188 32.300781 2.515625 32.578125 2.925781 32.578125 L 7.722656 32.578125 C 8.132812 32.578125 8.40625 32.300781 8.40625 31.890625 L 8.40625 13.398438 L 8.886719 13.398438 L 15.804688 30.109375 C 15.941406 30.386719 16.144531 30.523438 16.421875 30.523438 L 19.640625 30.523438 C 19.914062 30.523438 20.1875 30.386719 20.253906 30.109375 L 27.105469 13.398438 L 27.585938 13.398438 L 27.585938 31.890625 C 27.585938 32.300781 27.859375 32.578125 28.269531 32.578125 L 33.0625 32.578125 C 33.472656 32.578125 33.75 32.300781 33.75 31.890625 L 33.75 3.125 C 33.75 2.714844 33.472656 2.441406 33.0625 2.441406 Z M 33.0625 2.441406 " fill-opacity="1" fill-rule="nonzero"/></g><g clip-path="url(#77fcef13d8)"><path fill="#4aeb8a" d="M 33.0625 2.441406 L 26.898438 2.441406 C 26.625 2.441406 26.351562 2.578125 26.28125 2.851562 L 17.996094 22.917969 L 9.707031 2.851562 C 9.640625 2.578125 9.367188 2.441406 9.089844 2.441406 L 2.925781 2.441406 C 2.515625 2.441406 2.242188 2.714844 2.242188 3.125 L 2.242188 31.890625 C 2.242188 32.300781 2.515625 32.578125 2.925781 32.578125 L 7.722656 32.578125 C 8.132812 32.578125 8.40625 32.300781 8.40625 31.890625 L 8.40625 13.398438 L 8.886719 13.398438 L 15.804688 30.109375 C 15.941406 30.386719 16.144531 30.523438 16.421875 30.523438 L 19.640625 30.523438 C 19.914062 30.523438 20.1875 30.386719 20.253906 30.109375 L 27.105469 13.398438 L 27.585938 13.398438 L 27.585938 31.890625 C 27.585938 32.300781 27.859375 32.578125 28.269531 32.578125 L 33.0625 32.578125 C 33.472656 32.578125 33.75 32.300781 33.75 31.890625 L 33.75 3.125 C 33.75 2.714844 33.472656 2.441406 33.0625 2.441406 Z M 33.0625 2.441406 " fill-opacity="1" fill-rule="nonzero"/></g><g clip-path="url(#98f560d481)"><path fill="#4aeb8a" d="M 33.0625 2.441406 L 26.898438 2.441406 C 26.625 2.441406 26.351562 2.578125 26.28125 2.851562 L 17.996094 22.917969 L 9.707031 2.851562 C 9.640625 2.578125 9.367188 2.441406 9.089844 2.441406 L 2.925781 2.441406 C 2.515625 2.441406 2.242188 2.714844 2.242188 3.125 L 2.242188 31.890625 C 2.242188 32.300781 2.515625 32.578125 2.925781 32.578125 L 7.722656 32.578125 C 8.132812 32.578125 8.40625 32.300781 8.40625 31.890625 L 8.40625 13.398438 L 8.886719 13.398438 L 15.804688 30.109375 C 15.941406 30.386719 16.144531 30.523438 16.421875 30.523438 L 19.640625 30.523438 C 19.914062 30.523438 20.1875 30.386719 20.253906 30.109375 L 27.105469 13.398438 L 27.585938 13.398438 L 27.585938 31.890625 C 27.585938 32.300781 27.859375 32.578125 28.269531 32.578125 L 33.0625 32.578125 C 33.472656 32.578125 33.75 32.300781 33.75 31.890625 L 33.75 3.125 C 33.75 2.714844 33.472656 2.441406 33.0625 2.441406 Z M 33.0625 2.441406 " fill-opacity="1" fill-rule="nonzero"/></g><g clip-path="url(#6b5bae1ff9)"><path fill="#4aeb8a" d="M 37.417969 -8.625 L 31.367188 -8.625 C 31.097656 -8.625 30.828125 -8.492188 30.761719 -8.222656 L 22.628906 11.472656 L 14.496094 -8.222656 C 14.425781 -8.492188 14.160156 -8.625 13.890625 -8.625 L 7.839844 -8.625 C 7.4375 -8.625 7.167969 -8.355469 7.167969 -7.953125 L 7.167969 20.28125 C 7.167969 20.683594 7.4375 20.953125 7.839844 20.953125 L 12.546875 20.953125 C 12.949219 20.953125 13.21875 20.683594 13.21875 20.28125 L 13.21875 2.128906 L 13.6875 2.128906 L 20.476562 18.53125 C 20.613281 18.800781 20.8125 18.933594 21.082031 18.933594 L 24.242188 18.933594 C 24.511719 18.933594 24.777344 18.800781 24.847656 18.53125 L 31.570312 2.128906 L 32.039062 2.128906 L 32.039062 20.28125 C 32.039062 20.683594 32.308594 20.953125 32.710938 20.953125 L 37.417969 20.953125 C 37.820312 20.953125 38.089844 20.683594 38.089844 20.28125 L 38.089844 -7.953125 C 38.089844 -8.355469 37.820312 -8.625 37.417969 -8.625 Z M 37.417969 -8.625 " fill-opacity="1" fill-rule="nonzero"/></g><g clip-path="url(#b648163274)"><g clip-path="url(#6b2c87bd7a)"><g clip-path="url(#3614258763)"><path fill="#4aeb8a" d="M 24.167969 8.175781 L 24.511719 10.941406 L 24.859375 13.707031 C 23.753906 13.84375 22.648438 13.980469 21.542969 14.113281 C 22.417969 12.136719 23.292969 10.15625 24.167969 8.175781 " fill-opacity="1" fill-rule="nonzero"/></g></g></g></svg>